<?xml version="1.0" encoding="utf-8"?>
<!-- Generator: Adobe Illustrator 25.0.1, SVG Export Plug-In . SVG Version: 6.00 Build 0)  -->
<svg version="1.1" id="图层_1" xmlns="http://www.w3.org/2000/svg" xmlns:xlink="http://www.w3.org/1999/xlink" x="0px" y="0px"
	 viewBox="0 0 200 196.6" style="enable-background:new 0 0 200 196.6;" xml:space="preserve">
<style type="text/css">
	.st0{fill:#369F98;}
</style>
<path class="st0" d="M200.1,152l-0.4-4.5c-0.8-3.3-3.3-5.8-6.5-6.7h-0.1l-1.3-0.3c-4.8-1.5-7.6-6.4-6.5-11.3l0.4-1.2v-0.1
	c0.8-3.2-0.2-6.6-2.6-8.9l-0.1-0.1c-1.7-1.3-3.4-2.4-5.3-3.4c-1.8-1.1-3.6-2.1-5.6-2.9h-0.4c-0.9-0.3-1.8-0.4-2.7-0.4
	c-2.4,0-4.7,0.9-6.4,2.6l-0.9,1c-1.8,1.6-4.1,2.5-6.5,2.5c-2.4,0-4.8-0.9-6.6-2.6l-0.9-1c-1.7-1.7-4-2.6-6.4-2.6
	c-0.9,0-1.8,0.1-2.7,0.4l-0.2,0.1c-2,0.8-3.9,1.8-5.7,2.9c-1.9,1-3.7,2.2-5.3,3.5l-0.1,0.1c-2.4,2.3-3.4,5.7-2.6,8.9l0.4,1.3
	c1.1,4.9-1.7,9.8-6.5,11.3l-1.3,0.3c-3.2,0.9-5.7,3.5-6.4,6.7v0.2c-0.3,2.1-0.4,4.2-0.3,6.3c-0.1,2.1,0.1,4.3,0.3,6.4
	c0.7,3.4,3.3,6.1,6.6,7l1.2,0.3c4.8,1.5,7.7,6.5,6.6,11.4l-0.4,1.3c-0.8,3.2,0.2,6.6,2.6,8.9l0.2,0.1c1.7,1.3,3.5,2.5,5.3,3.5
	c1.8,1.1,3.7,2.1,5.7,2.9c0.9,0.3,1.8,0.5,2.8,0.5c2.5,0,4.8-1,6.6-2.7l0.8-0.9c3.7-3.4,9.4-3.4,13.1,0l0.8,0.9l0.1,0.1
	c1.7,1.7,4,2.6,6.4,2.6c0.9,0,1.8-0.1,2.7-0.4h0.2c2-0.8,3.9-1.8,5.8-2.9c1.9-1.1,3.6-2.3,5.3-3.6l0.1-0.1c2.4-2.3,3.4-5.7,2.6-8.9
	l-0.4-1.3c-1.1-4.9,1.7-9.9,6.6-11.3l1.2-0.3c3.2-0.9,5.7-3.5,6.4-6.7v-0.2c0.3-2.1,0.4-4.2,0.3-6.4
	C200.1,153.3,200.1,152.6,200.1,152z M155.4,166.7c-7,0-12.7-5.7-12.7-12.7c0-7,5.7-12.7,12.7-12.7c7,0,12.7,5.7,12.7,12.7
	c0,0,0,0,0,0C168,161,162.3,166.7,155.4,166.7C155.3,166.7,155.3,166.7,155.4,166.7L155.4,166.7z"/>
<path class="st0" d="M17.2,129.8h60.1c0.2,0,0.4,0.1,0.6,0.1h25.6c10.3-21.5,31.9-35.2,55.8-35.3c5.3,0,10.5,0.8,15.6,2.2V82.7
	c0-6.8-5.5-12.3-12.3-12.3H17.2C7.6,70.5-0.1,78.5,0,88.1c0,0,0,0.1,0,0.1v23.7C-0.2,121.6,7.5,129.6,17.2,129.8z M18.4,96.4
	c0-3.7,2.9-6.7,6.5-6.8h8.7c3.6,0.1,6.6,3.1,6.5,6.7c0,0,0,0,0,0.1v8.8c0,3.6-2.9,6.7-6.5,6.7h-8.7c-3.6-0.1-6.6-3.1-6.5-6.7
	c0,0,0,0,0,0V96.4z M100.9,137.1h-23c-0.2,0-0.4,0.1-0.6,0.1h-60c-9.6,0.1-17.3,8.1-17.2,17.7c0,0,0,0.1,0,0.1v23.8
	c-0.1,9.6,7.6,17.5,17.2,17.7h94.2C97.4,180.1,93.4,157.4,100.9,137.1L100.9,137.1z M40,172c0.1,3.7-2.8,6.7-6.5,6.8h-8.7
	c-3.6-0.1-6.6-3.1-6.5-6.7c0,0,0,0,0-0.1v-8.8c0-3.7,2.9-6.7,6.5-6.8h8.7c3.6,0.1,6.6,3.1,6.5,6.7c0,0,0,0,0,0.1V172z M17.2,59.3
	h137.7c9.7-0.1,17.4-8.1,17.3-17.8V17.8C172.4,8.2,164.7,0.2,155,0H17.2C7.6,0.1-0.1,8.1,0,17.7c0,0,0,0.1,0,0.1v23.7
	C-0.1,51.2,7.5,59.1,17.2,59.3z M18.4,24.5c0-3.6,2.9-6.7,6.5-6.7h8.7c3.6,0.1,6.5,3.1,6.5,6.7c0,0,0,0,0,0v8.9
	c0,3.6-2.9,6.7-6.5,6.7h-8.7c-3.6-0.1-6.6-3.1-6.5-6.7c0,0,0,0,0,0L18.4,24.5z"/>
</svg>
